<svg xmlns="http://www.w3.org/2000/svg" xmlns:xlink="http://www.w3.org/1999/xlink" width="151" zoomAndPan="magnify" viewBox="0 0 113.25 30.000001" height="40" preserveAspectRatio="xMidYMid meet" version="1.0"><defs><g/><clipPath id="44115d2bd8"><path d="M 60.664062 2.734375 L 64.304688 2.734375 L 64.304688 15.710938 L 60.664062 15.710938 Z M 60.664062 2.734375 " clip-rule="nonzero"/></clipPath><clipPath id="9b07ed485d"><path d="M 62.460938 3.675781 C 62.511719 3.675781 62.5625 3.730469 62.640625 3.835938 C 63.089844 4.433594 63.386719 5.09375 63.503906 5.832031 C 63.644531 6.722656 63.507812 7.574219 63.125 8.386719 C 63.03125 8.585938 62.910156 8.773438 62.777344 8.964844 L 62.722656 8.964844 C 62.644531 8.269531 62.566406 7.574219 62.472656 6.878906 L 62.449219 6.878906 C 62.367188 7.574219 62.289062 8.269531 62.191406 8.96875 L 62.148438 8.980469 C 62.039062 8.796875 61.917969 8.621094 61.828125 8.429688 C 61.257812 7.21875 61.222656 5.988281 61.75 4.761719 C 61.890625 4.4375 62.097656 4.144531 62.289062 3.847656 C 62.367188 3.730469 62.414062 3.675781 62.464844 3.675781 Z M 62.46875 2.757812 C 62.363281 2.757812 62.261719 2.8125 62.152344 2.921875 C 61.417969 3.664062 60.9375 4.546875 60.757812 5.582031 C 60.480469 7.203125 60.886719 8.640625 61.960938 9.878906 C 62.0625 10 62.105469 10.109375 62.105469 10.261719 L 62.101562 12.714844 C 62.101562 12.960938 62.101562 13.207031 62.101562 13.453125 L 62.105469 15.289062 C 62.105469 15.535156 62.25 15.6875 62.464844 15.691406 L 62.472656 15.691406 C 62.480469 15.691406 62.488281 15.691406 62.496094 15.6875 C 62.710938 15.675781 62.828125 15.519531 62.828125 15.234375 L 62.824219 10.277344 C 62.824219 10.117188 62.863281 9.996094 62.972656 9.878906 C 63.589844 9.199219 63.996094 8.40625 64.160156 7.5 C 64.476562 5.746094 64.019531 4.21875 62.789062 2.929688 C 62.679688 2.8125 62.574219 2.757812 62.46875 2.757812 Z M 62.46875 2.757812 " clip-rule="nonzero"/></clipPath><clipPath id="8dda35e19e"><path d="M 63.515625 6.109375 L 69.371094 6.109375 L 69.371094 14.339844 L 63.515625 14.339844 Z M 63.515625 6.109375 " clip-rule="nonzero"/></clipPath><clipPath id="5ecc9c062c"><path d="M 68.515625 6.886719 C 68.625 6.886719 68.636719 6.941406 68.609375 7.121094 C 68.511719 7.875 68.265625 8.574219 67.828125 9.199219 C 67.121094 10.207031 66.171875 10.859375 64.980469 11.144531 C 64.933594 11.15625 64.886719 11.160156 64.835938 11.160156 C 64.8125 11.160156 64.789062 11.160156 64.765625 11.160156 L 64.753906 11.132812 C 65.222656 10.550781 65.691406 9.964844 66.152344 9.371094 L 66.132812 9.347656 C 65.550781 9.820312 64.96875 10.289062 64.375 10.753906 L 64.339844 10.734375 C 64.378906 10.570312 64.40625 10.402344 64.457031 10.246094 C 65.011719 8.558594 66.136719 7.464844 67.855469 6.996094 C 68.023438 6.949219 68.199219 6.929688 68.375 6.902344 C 68.433594 6.890625 68.480469 6.886719 68.515625 6.886719 Z M 68.933594 6.148438 C 68.929688 6.148438 68.925781 6.148438 68.921875 6.148438 C 67.859375 6.15625 66.871094 6.445312 66 7.042969 C 64.488281 8.078125 63.648438 9.515625 63.566406 11.355469 C 63.53125 12.203125 63.5625 13.058594 63.5625 13.910156 C 63.566406 14.160156 63.703125 14.308594 63.914062 14.308594 C 63.914062 14.308594 63.917969 14.308594 63.917969 14.308594 C 64.128906 14.308594 64.273438 14.148438 64.277344 13.898438 L 64.273438 13.3125 C 64.269531 13.199219 64.316406 13.152344 64.425781 13.132812 C 64.621094 13.09375 64.820312 13.054688 65.007812 12.992188 L 66.222656 12.585938 L 66.214844 12.582031 L 66.203125 12.570312 C 65.796875 12.574219 65.390625 12.589844 64.984375 12.589844 C 64.871094 12.589844 64.757812 12.589844 64.648438 12.585938 C 64.269531 12.574219 64.277344 12.554688 64.261719 12.175781 C 64.25 12 64.324219 11.957031 64.484375 11.9375 C 64.777344 11.902344 65.078125 11.863281 65.363281 11.785156 C 66.351562 11.507812 67.203125 10.996094 67.90625 10.238281 C 68.859375 9.203125 69.335938 7.984375 69.363281 6.582031 C 69.367188 6.28125 69.234375 6.148438 68.933594 6.148438 Z M 68.933594 6.148438 " clip-rule="nonzero"/></clipPath><clipPath id="263bd17a21"><path d="M 55.546875 6.109375 L 61.402344 6.109375 L 61.402344 14.339844 L 55.546875 14.339844 Z M 55.546875 6.109375 " clip-rule="nonzero"/></clipPath><clipPath id="82c686ac2c"><path d="M 56.40625 6.882812 C 56.433594 6.882812 56.464844 6.886719 56.5 6.890625 C 57.84375 7.070312 58.925781 7.691406 59.742188 8.773438 C 60.15625 9.324219 60.425781 9.933594 60.566406 10.605469 C 60.574219 10.648438 60.574219 10.691406 60.566406 10.742188 L 60.542969 10.765625 L 58.777344 9.324219 C 58.765625 9.332031 58.753906 9.339844 58.746094 9.351562 L 60.175781 11.125 C 60.167969 11.140625 60.164062 11.152344 60.15625 11.167969 L 59.984375 11.152344 C 58.601562 10.828125 57.5625 10.039062 56.863281 8.804688 C 56.558594 8.273438 56.390625 7.691406 56.316406 7.085938 C 56.296875 6.929688 56.308594 6.882812 56.40625 6.882812 Z M 55.976562 6.148438 C 55.691406 6.148438 55.574219 6.28125 55.570312 6.582031 L 55.570312 6.601562 C 55.574219 7.539062 55.8125 8.421875 56.285156 9.226562 C 57.183594 10.75 58.507812 11.664062 60.273438 11.917969 C 60.679688 11.980469 60.679688 11.980469 60.660156 12.410156 L 60.660156 12.429688 C 60.667969 12.527344 60.617188 12.566406 60.527344 12.566406 L 59.328125 12.585938 C 59.128906 12.585938 58.925781 12.554688 58.722656 12.539062 L 58.71875 12.546875 L 58.714844 12.558594 C 58.753906 12.578125 58.792969 12.601562 58.832031 12.617188 L 60.503906 13.128906 C 60.617188 13.160156 60.664062 13.203125 60.660156 13.324219 L 60.664062 13.960938 C 60.671875 14.160156 60.828125 14.308594 61.015625 14.308594 C 61.015625 14.308594 61.015625 14.308594 61.019531 14.308594 C 61.207031 14.308594 61.351562 14.167969 61.367188 13.964844 C 61.375 13.890625 61.371094 13.816406 61.371094 13.742188 L 61.375 11.546875 C 61.378906 10.628906 61.167969 9.765625 60.707031 8.972656 C 59.667969 7.167969 58.097656 6.230469 56.019531 6.148438 C 56.003906 6.148438 55.992188 6.148438 55.976562 6.148438 Z M 55.976562 6.148438 " clip-rule="nonzero"/></clipPath></defs><g clip-path="url(#44115d2bd8)"><g clip-path="url(#9b07ed485d)"><path fill="#378d11" d="M 55.285156 2.46875 L 69.632812 2.46875 L 69.632812 15.976562 L 55.285156 15.976562 Z M 55.285156 2.46875 " fill-opacity="1" fill-rule="nonzero"/></g></g><g clip-path="url(#8dda35e19e)"><g clip-path="url(#5ecc9c062c)"><path fill="#378d11" d="M 55.285156 2.46875 L 69.632812 2.46875 L 69.632812 15.976562 L 55.285156 15.976562 Z M 55.285156 2.46875 " fill-opacity="1" fill-rule="nonzero"/></g></g><g clip-path="url(#263bd17a21)"><g clip-path="url(#82c686ac2c)"><path fill="#378d11" d="M 55.285156 2.46875 L 69.632812 2.46875 L 69.632812 15.976562 L 55.285156 15.976562 Z M 55.285156 2.46875 " fill-opacity="1" fill-rule="nonzero"/></g></g><g fill="#000000" fill-opacity="1"><g transform="translate(27.787448, 18.928224)"><g><path d="M 9.625 -4.203125 C 9.832031 -4.234375 9.894531 -4.148438 9.8125 -3.953125 C 9.75 -3.796875 9.679688 -3.640625 9.609375 -3.484375 C 9.296875 -2.828125 9 -2.160156 8.71875 -1.484375 C 8.445312 -0.816406 8.1875 -0.144531 7.9375 0.53125 C 7.875 0.6875 7.8125 0.84375 7.75 1 C 7.71875 1.0625 7.671875 1.085938 7.609375 1.078125 C 7.546875 1.066406 7.519531 1.03125 7.53125 0.96875 C 7.5625 0.800781 7.597656 0.640625 7.640625 0.484375 C 7.816406 -0.109375 8.019531 -0.691406 8.25 -1.265625 C 8.488281 -1.835938 8.738281 -2.410156 9 -2.984375 C 9.03125 -3.078125 9.066406 -3.164062 9.109375 -3.25 C 9.109375 -3.257812 9.109375 -3.265625 9.109375 -3.265625 C 9.109375 -3.273438 9.101562 -3.285156 9.09375 -3.296875 C 9.019531 -3.242188 8.953125 -3.179688 8.890625 -3.109375 C 8.878906 -3.085938 8.863281 -3.0625 8.84375 -3.03125 C 8.488281 -2.625 8.046875 -2.140625 7.515625 -1.578125 C 6.992188 -1.015625 6.4375 -0.445312 5.84375 0.125 C 5.25 0.695312 4.671875 1.210938 4.109375 1.671875 C 3.554688 2.128906 3.066406 2.457031 2.640625 2.65625 C 2.515625 2.707031 2.390625 2.734375 2.265625 2.734375 C 1.984375 2.742188 1.816406 2.617188 1.765625 2.359375 C 1.734375 2.191406 1.734375 2.019531 1.765625 1.84375 C 1.785156 1.65625 1.820312 1.472656 1.875 1.296875 C 1.925781 1.117188 1.984375 0.9375 2.046875 0.75 C 2.203125 0.269531 2.421875 -0.273438 2.703125 -0.890625 C 2.984375 -1.503906 3.28125 -2.148438 3.59375 -2.828125 C 3.90625 -3.460938 4.203125 -4.09375 4.484375 -4.71875 C 4.773438 -5.34375 5.015625 -5.921875 5.203125 -6.453125 C 5.398438 -6.992188 5.519531 -7.453125 5.5625 -7.828125 C 5.570312 -7.929688 5.570312 -8.035156 5.5625 -8.140625 C 5.519531 -8.335938 5.394531 -8.414062 5.1875 -8.375 C 5.03125 -8.34375 4.878906 -8.289062 4.734375 -8.21875 C 4.597656 -8.144531 4.460938 -8.066406 4.328125 -7.984375 C 3.992188 -7.785156 3.613281 -7.523438 3.1875 -7.203125 C 2.757812 -6.878906 2.320312 -6.515625 1.875 -6.109375 C 1.425781 -5.710938 1.003906 -5.289062 0.609375 -4.84375 C 0.210938 -4.40625 -0.113281 -3.96875 -0.375 -3.53125 C -0.632812 -3.09375 -0.796875 -2.675781 -0.859375 -2.28125 C -0.867188 -2.175781 -0.875 -2.066406 -0.875 -1.953125 C -0.882812 -1.566406 -0.726562 -1.273438 -0.40625 -1.078125 C -0.257812 -0.984375 -0.109375 -0.910156 0.046875 -0.859375 C 0.210938 -0.816406 0.378906 -0.78125 0.546875 -0.75 C 0.859375 -0.707031 1.171875 -0.679688 1.484375 -0.671875 C 1.648438 -0.671875 1.804688 -0.664062 1.953125 -0.65625 C 2.097656 -0.644531 2.15625 -0.617188 2.125 -0.578125 C 2.101562 -0.535156 2.078125 -0.507812 2.046875 -0.5 C 2.015625 -0.5 1.984375 -0.5 1.953125 -0.5 C 1.953125 -0.5 1.945312 -0.5 1.9375 -0.5 C 1.613281 -0.5 1.285156 -0.507812 0.953125 -0.53125 C 0.628906 -0.5625 0.3125 -0.613281 0 -0.6875 C -0.164062 -0.726562 -0.320312 -0.785156 -0.46875 -0.859375 C -1.007812 -1.117188 -1.242188 -1.5625 -1.171875 -2.1875 C -1.117188 -2.613281 -0.960938 -3.050781 -0.703125 -3.5 C -0.441406 -3.957031 -0.117188 -4.410156 0.265625 -4.859375 C 0.660156 -5.316406 1.082031 -5.75 1.53125 -6.15625 C 1.976562 -6.5625 2.414062 -6.925781 2.84375 -7.25 C 3.28125 -7.582031 3.664062 -7.851562 4 -8.0625 C 4.238281 -8.21875 4.488281 -8.347656 4.75 -8.453125 C 4.925781 -8.535156 5.109375 -8.582031 5.296875 -8.59375 C 5.710938 -8.625 5.925781 -8.429688 5.9375 -8.015625 C 5.9375 -7.691406 5.832031 -7.242188 5.625 -6.671875 C 5.425781 -6.097656 5.164062 -5.457031 4.84375 -4.75 C 4.53125 -4.050781 4.203125 -3.335938 3.859375 -2.609375 C 3.535156 -1.910156 3.238281 -1.253906 2.96875 -0.640625 C 2.695312 -0.0351562 2.492188 0.472656 2.359375 0.890625 C 2.253906 1.191406 2.175781 1.5 2.125 1.8125 C 2.09375 1.976562 2.085938 2.140625 2.109375 2.296875 C 2.148438 2.515625 2.273438 2.578125 2.484375 2.484375 C 2.910156 2.285156 3.421875 1.929688 4.015625 1.421875 C 4.609375 0.910156 5.234375 0.328125 5.890625 -0.328125 C 6.546875 -0.984375 7.164062 -1.628906 7.75 -2.265625 C 8.332031 -2.898438 8.816406 -3.4375 9.203125 -3.875 C 9.273438 -3.957031 9.351562 -4.039062 9.4375 -4.125 C 9.488281 -4.164062 9.550781 -4.191406 9.625 -4.203125 Z M 9.625 -4.203125 "/></g></g><g transform="translate(36.977008, 18.928224)"><g><path d="M 1.21875 -1.5625 C 1.207031 -1.445312 1.148438 -1.367188 1.046875 -1.328125 C 0.953125 -1.296875 0.921875 -1.34375 0.953125 -1.46875 C 0.992188 -1.601562 0.9375 -1.632812 0.78125 -1.5625 C 0.632812 -1.5 0.515625 -1.421875 0.421875 -1.328125 C 0.273438 -1.171875 0.140625 -1.003906 0.015625 -0.828125 C 0.00390625 -0.816406 0 -0.804688 0 -0.796875 C -0.0390625 -0.742188 -0.078125 -0.695312 -0.109375 -0.65625 C -0.128906 -0.625 -0.15625 -0.601562 -0.1875 -0.59375 C -0.21875 -0.59375 -0.25 -0.59375 -0.28125 -0.59375 C -0.300781 -0.601562 -0.316406 -0.613281 -0.328125 -0.625 C -0.347656 -0.644531 -0.351562 -0.671875 -0.34375 -0.703125 C -0.320312 -0.742188 -0.300781 -0.785156 -0.28125 -0.828125 C -0.125 -1.117188 0.03125 -1.40625 0.1875 -1.6875 C 0.1875 -1.6875 0.1875 -1.691406 0.1875 -1.703125 C 0.207031 -1.742188 0.234375 -1.78125 0.265625 -1.8125 C 0.296875 -1.851562 0.332031 -1.867188 0.375 -1.859375 C 0.425781 -1.859375 0.457031 -1.832031 0.46875 -1.78125 C 0.488281 -1.726562 0.503906 -1.695312 0.515625 -1.6875 C 0.535156 -1.675781 0.566406 -1.679688 0.609375 -1.703125 C 0.710938 -1.742188 0.8125 -1.769531 0.90625 -1.78125 C 1.007812 -1.789062 1.09375 -1.785156 1.15625 -1.765625 C 1.21875 -1.742188 1.238281 -1.675781 1.21875 -1.5625 Z M 1.21875 -1.5625 "/></g></g><g transform="translate(38.248392, 18.928224)"><g><path d="M 1.296875 -4.03125 C 1.304688 -4.050781 1.320312 -4.0625 1.34375 -4.0625 C 1.375 -4.070312 1.40625 -4.078125 1.4375 -4.078125 C 1.46875 -4.085938 1.492188 -4.085938 1.515625 -4.078125 C 1.535156 -4.078125 1.546875 -4.070312 1.546875 -4.0625 C 1.523438 -3.976562 1.5 -3.898438 1.46875 -3.828125 C 1.457031 -3.816406 1.453125 -3.800781 1.453125 -3.78125 C 1.304688 -3.457031 1.160156 -3.132812 1.015625 -2.8125 C 0.992188 -2.769531 0.972656 -2.726562 0.953125 -2.6875 C 0.898438 -2.570312 0.835938 -2.4375 0.765625 -2.28125 C 0.671875 -2.113281 0.59375 -1.960938 0.53125 -1.828125 C 0.59375 -1.898438 0.664062 -1.953125 0.75 -1.984375 C 0.84375 -2.015625 0.914062 -2.03125 0.96875 -2.03125 C 1.144531 -2.03125 1.242188 -1.941406 1.265625 -1.765625 C 1.296875 -1.566406 1.257812 -1.363281 1.15625 -1.15625 C 1.050781 -0.957031 0.921875 -0.789062 0.765625 -0.65625 C 0.617188 -0.582031 0.484375 -0.550781 0.359375 -0.5625 C 0.234375 -0.570312 0.125 -0.628906 0.03125 -0.734375 C 0.0195312 -0.734375 0.0078125 -0.726562 0 -0.71875 C -0.0078125 -0.707031 -0.0234375 -0.695312 -0.046875 -0.6875 C -0.0664062 -0.664062 -0.0859375 -0.648438 -0.109375 -0.640625 C -0.117188 -0.628906 -0.132812 -0.625 -0.15625 -0.625 C -0.175781 -0.632812 -0.191406 -0.640625 -0.203125 -0.640625 C -0.234375 -0.671875 -0.242188 -0.707031 -0.234375 -0.75 C -0.0859375 -1.125 0.078125 -1.515625 0.265625 -1.921875 C 0.460938 -2.328125 0.65625 -2.71875 0.84375 -3.09375 C 0.925781 -3.269531 1.007812 -3.4375 1.09375 -3.59375 C 1.125 -3.65625 1.15625 -3.722656 1.1875 -3.796875 C 1.21875 -3.867188 1.253906 -3.945312 1.296875 -4.03125 Z M 0.65625 -1.734375 C 0.53125 -1.640625 0.421875 -1.523438 0.328125 -1.390625 C 0.234375 -1.253906 0.195312 -1.113281 0.21875 -0.96875 C 0.238281 -0.875 0.273438 -0.8125 0.328125 -0.78125 C 0.378906 -0.75 0.441406 -0.765625 0.515625 -0.828125 C 0.597656 -0.890625 0.675781 -0.972656 0.75 -1.078125 C 0.820312 -1.179688 0.878906 -1.296875 0.921875 -1.421875 C 0.960938 -1.523438 0.984375 -1.613281 0.984375 -1.6875 C 0.992188 -1.769531 0.972656 -1.816406 0.921875 -1.828125 C 0.878906 -1.847656 0.789062 -1.816406 0.65625 -1.734375 Z M 0.65625 -1.734375 "/></g></g><g transform="translate(39.657085, 18.928224)"><g><path d="M 1.84375 -1.296875 C 1.882812 -1.273438 1.890625 -1.21875 1.859375 -1.125 C 1.804688 -1.0625 1.75 -1 1.6875 -0.9375 C 1.632812 -0.882812 1.578125 -0.835938 1.515625 -0.796875 C 1.503906 -0.796875 1.5 -0.796875 1.5 -0.796875 C 1.457031 -0.765625 1.410156 -0.738281 1.359375 -0.71875 C 0.953125 -0.570312 0.75 -0.65625 0.75 -0.96875 C 0.582031 -0.820312 0.472656 -0.734375 0.421875 -0.703125 C 0.285156 -0.628906 0.140625 -0.597656 -0.015625 -0.609375 C -0.128906 -0.609375 -0.207031 -0.640625 -0.25 -0.703125 C -0.289062 -0.765625 -0.289062 -0.851562 -0.25 -0.96875 C -0.164062 -1.132812 -0.0546875 -1.285156 0.078125 -1.421875 C 0.234375 -1.566406 0.410156 -1.6875 0.609375 -1.78125 C 0.710938 -1.832031 0.820312 -1.851562 0.9375 -1.84375 C 1.050781 -1.832031 1.117188 -1.765625 1.140625 -1.640625 C 1.148438 -1.609375 1.144531 -1.578125 1.125 -1.546875 C 1.082031 -1.515625 1.035156 -1.507812 0.984375 -1.53125 C 0.984375 -1.53125 0.976562 -1.53125 0.96875 -1.53125 C 0.914062 -1.601562 0.863281 -1.632812 0.8125 -1.625 C 0.757812 -1.613281 0.707031 -1.585938 0.65625 -1.546875 C 0.394531 -1.398438 0.203125 -1.191406 0.078125 -0.921875 C 0.0664062 -0.898438 0.0625 -0.882812 0.0625 -0.875 C 0.0625 -0.863281 0.0664062 -0.851562 0.078125 -0.84375 C 0.109375 -0.832031 0.140625 -0.832031 0.171875 -0.84375 C 0.210938 -0.863281 0.25 -0.882812 0.28125 -0.90625 C 0.320312 -0.9375 0.351562 -0.960938 0.375 -0.984375 C 0.382812 -0.984375 0.390625 -0.984375 0.390625 -0.984375 C 0.515625 -1.085938 0.632812 -1.195312 0.75 -1.3125 C 0.800781 -1.363281 0.863281 -1.394531 0.9375 -1.40625 C 1.050781 -1.40625 1.097656 -1.351562 1.078125 -1.25 C 1.066406 -1.207031 1.054688 -1.171875 1.046875 -1.140625 C 1.003906 -0.972656 1.003906 -0.875 1.046875 -0.84375 C 1.085938 -0.820312 1.148438 -0.820312 1.234375 -0.84375 C 1.316406 -0.875 1.398438 -0.929688 1.484375 -1.015625 C 1.566406 -1.097656 1.632812 -1.171875 1.6875 -1.234375 C 1.75 -1.296875 1.800781 -1.316406 1.84375 -1.296875 Z M 1.84375 -1.296875 "/></g></g><g transform="translate(41.34294, 18.928224)"><g><path d="M 2.015625 -1.265625 C 2.035156 -1.234375 2 -1.171875 1.90625 -1.078125 C 1.8125 -0.992188 1.710938 -0.921875 1.609375 -0.859375 C 1.503906 -0.796875 1.378906 -0.734375 1.234375 -0.671875 C 1.140625 -0.628906 1.039062 -0.613281 0.9375 -0.625 C 0.832031 -0.644531 0.78125 -0.710938 0.78125 -0.828125 C 0.78125 -0.941406 0.804688 -1.050781 0.859375 -1.15625 C 0.910156 -1.269531 0.921875 -1.328125 0.890625 -1.328125 C 0.859375 -1.335938 0.800781 -1.3125 0.71875 -1.25 C 0.46875 -1.09375 0.238281 -0.910156 0.03125 -0.703125 C -0.0195312 -0.640625 -0.0859375 -0.601562 -0.171875 -0.59375 C -0.222656 -0.59375 -0.257812 -0.609375 -0.28125 -0.640625 C -0.300781 -0.671875 -0.304688 -0.703125 -0.296875 -0.734375 C -0.140625 -1.003906 0.0078125 -1.273438 0.15625 -1.546875 C 0.195312 -1.597656 0.25 -1.632812 0.3125 -1.65625 C 0.34375 -1.65625 0.367188 -1.644531 0.390625 -1.625 C 0.421875 -1.601562 0.4375 -1.578125 0.4375 -1.546875 C 0.425781 -1.515625 0.414062 -1.484375 0.40625 -1.453125 C 0.394531 -1.429688 0.382812 -1.410156 0.375 -1.390625 C 0.363281 -1.367188 0.359375 -1.347656 0.359375 -1.328125 C 0.367188 -1.316406 0.382812 -1.316406 0.40625 -1.328125 C 0.425781 -1.335938 0.445312 -1.347656 0.46875 -1.359375 C 0.539062 -1.398438 0.601562 -1.4375 0.65625 -1.46875 C 0.707031 -1.5 0.757812 -1.523438 0.8125 -1.546875 C 0.875 -1.578125 0.9375 -1.597656 1 -1.609375 C 1.101562 -1.609375 1.175781 -1.582031 1.21875 -1.53125 C 1.257812 -1.476562 1.265625 -1.40625 1.234375 -1.3125 C 1.203125 -1.226562 1.164062 -1.144531 1.125 -1.0625 C 1.082031 -0.988281 1.078125 -0.929688 1.109375 -0.890625 C 1.140625 -0.847656 1.28125 -0.894531 1.53125 -1.03125 L 1.71875 -1.140625 C 1.894531 -1.253906 1.992188 -1.296875 2.015625 -1.265625 Z M 2.015625 -1.265625 "/></g></g><g transform="translate(43.206788, 18.928224)"><g/></g><g transform="translate(45.12912, 18.928224)"><g><path d="M 13.125 -7.328125 C 13.164062 -7.296875 13.203125 -7.253906 13.234375 -7.203125 C 13.273438 -7.160156 13.300781 -7.109375 13.3125 -7.046875 C 13.320312 -6.972656 13.296875 -6.914062 13.234375 -6.875 C 13.203125 -6.851562 13.164062 -6.847656 13.125 -6.859375 C 13.09375 -6.878906 13.066406 -6.910156 13.046875 -6.953125 C 13.003906 -7.066406 12.941406 -7.15625 12.859375 -7.21875 C 12.785156 -7.28125 12.695312 -7.335938 12.59375 -7.390625 C 12.382812 -7.503906 12.164062 -7.59375 11.9375 -7.65625 C 11.707031 -7.726562 11.476562 -7.789062 11.25 -7.84375 C 10.863281 -7.925781 10.347656 -7.976562 9.703125 -8 C 9.066406 -8.03125 8.359375 -8.019531 7.578125 -7.96875 C 6.796875 -7.925781 5.992188 -7.84375 5.171875 -7.71875 C 4.347656 -7.59375 3.5625 -7.421875 2.8125 -7.203125 C 2.0625 -6.992188 1.398438 -6.722656 0.828125 -6.390625 C 0.265625 -6.066406 -0.15625 -5.6875 -0.4375 -5.25 C -0.664062 -4.863281 -0.710938 -4.460938 -0.578125 -4.046875 C -0.472656 -3.753906 -0.328125 -3.488281 -0.140625 -3.25 C 0.140625 -2.882812 0.453125 -2.554688 0.796875 -2.265625 C 1.085938 -1.992188 1.378906 -1.726562 1.671875 -1.46875 C 1.960938 -1.21875 2.25 -0.960938 2.53125 -0.703125 C 2.851562 -0.398438 3.171875 -0.0976562 3.484375 0.203125 C 3.515625 0.222656 3.546875 0.25 3.578125 0.28125 C 3.742188 0.4375 3.890625 0.609375 4.015625 0.796875 C 4.140625 1.015625 4.160156 1.179688 4.078125 1.296875 C 4.003906 1.421875 3.851562 1.503906 3.625 1.546875 C 3.40625 1.585938 3.144531 1.597656 2.84375 1.578125 C 2.539062 1.566406 2.238281 1.53125 1.9375 1.46875 C 1.632812 1.414062 1.363281 1.347656 1.125 1.265625 C 0.894531 1.179688 0.734375 1.097656 0.640625 1.015625 C 0.453125 0.835938 0.441406 0.644531 0.609375 0.4375 C 0.785156 0.238281 1.003906 0.09375 1.265625 0 C 1.640625 -0.144531 2.019531 -0.15625 2.40625 -0.03125 C 2.488281 -0.0078125 2.5625 0.0195312 2.625 0.0625 C 2.632812 0.0703125 2.640625 0.078125 2.640625 0.078125 C 2.660156 0.0859375 2.671875 0.101562 2.671875 0.125 C 2.679688 0.144531 2.679688 0.164062 2.671875 0.1875 C 2.640625 0.226562 2.601562 0.238281 2.5625 0.21875 C 2.519531 0.207031 2.476562 0.191406 2.4375 0.171875 C 2.175781 0.0351562 1.898438 0.00390625 1.609375 0.078125 C 1.328125 0.160156 1.09375 0.316406 0.90625 0.546875 C 0.8125 0.660156 0.800781 0.757812 0.875 0.84375 C 0.957031 0.925781 1.078125 0.992188 1.234375 1.046875 C 1.390625 1.109375 1.546875 1.15625 1.703125 1.1875 C 1.867188 1.226562 1.988281 1.253906 2.0625 1.265625 C 2.070312 1.265625 2.082031 1.265625 2.09375 1.265625 C 2.113281 1.265625 2.132812 1.265625 2.15625 1.265625 C 2.25 1.285156 2.382812 1.304688 2.5625 1.328125 C 2.738281 1.359375 2.914062 1.378906 3.09375 1.390625 C 3.28125 1.398438 3.4375 1.382812 3.5625 1.34375 C 3.695312 1.3125 3.773438 1.25 3.796875 1.15625 C 3.816406 1.0625 3.742188 0.921875 3.578125 0.734375 C 3.398438 0.523438 3.210938 0.328125 3.015625 0.140625 C 2.535156 -0.328125 2.039062 -0.78125 1.53125 -1.21875 C 1.34375 -1.382812 1.160156 -1.550781 0.984375 -1.71875 C 0.679688 -1.988281 0.378906 -2.269531 0.078125 -2.5625 C -0.191406 -2.820312 -0.429688 -3.113281 -0.640625 -3.4375 C -0.785156 -3.664062 -0.890625 -3.910156 -0.953125 -4.171875 C -1.035156 -4.609375 -0.953125 -5.007812 -0.703125 -5.375 C -0.429688 -5.789062 -0.0351562 -6.15625 0.484375 -6.46875 C 1.003906 -6.789062 1.609375 -7.0625 2.296875 -7.28125 C 2.984375 -7.507812 3.710938 -7.691406 4.484375 -7.828125 C 5.265625 -7.972656 6.050781 -8.070312 6.84375 -8.125 C 7.644531 -8.1875 8.410156 -8.207031 9.140625 -8.1875 C 9.867188 -8.175781 10.523438 -8.125 11.109375 -8.03125 C 11.703125 -7.9375 12.1875 -7.8125 12.5625 -7.65625 C 12.757812 -7.570312 12.945312 -7.460938 13.125 -7.328125 Z M 13.125 -7.328125 "/></g></g><g transform="translate(48.877159, 18.928224)"><g><path d="M 1.84375 -1.296875 C 1.882812 -1.273438 1.890625 -1.21875 1.859375 -1.125 C 1.804688 -1.0625 1.75 -1 1.6875 -0.9375 C 1.632812 -0.882812 1.578125 -0.835938 1.515625 -0.796875 C 1.503906 -0.796875 1.5 -0.796875 1.5 -0.796875 C 1.457031 -0.765625 1.410156 -0.738281 1.359375 -0.71875 C 0.953125 -0.570312 0.75 -0.65625 0.75 -0.96875 C 0.582031 -0.820312 0.472656 -0.734375 0.421875 -0.703125 C 0.285156 -0.628906 0.140625 -0.597656 -0.015625 -0.609375 C -0.128906 -0.609375 -0.207031 -0.640625 -0.25 -0.703125 C -0.289062 -0.765625 -0.289062 -0.851562 -0.25 -0.96875 C -0.164062 -1.132812 -0.0546875 -1.285156 0.078125 -1.421875 C 0.234375 -1.566406 0.410156 -1.6875 0.609375 -1.78125 C 0.710938 -1.832031 0.820312 -1.851562 0.9375 -1.84375 C 1.050781 -1.832031 1.117188 -1.765625 1.140625 -1.640625 C 1.148438 -1.609375 1.144531 -1.578125 1.125 -1.546875 C 1.082031 -1.515625 1.035156 -1.507812 0.984375 -1.53125 C 0.984375 -1.53125 0.976562 -1.53125 0.96875 -1.53125 C 0.914062 -1.601562 0.863281 -1.632812 0.8125 -1.625 C 0.757812 -1.613281 0.707031 -1.585938 0.65625 -1.546875 C 0.394531 -1.398438 0.203125 -1.191406 0.078125 -0.921875 C 0.0664062 -0.898438 0.0625 -0.882812 0.0625 -0.875 C 0.0625 -0.863281 0.0664062 -0.851562 0.078125 -0.84375 C 0.109375 -0.832031 0.140625 -0.832031 0.171875 -0.84375 C 0.210938 -0.863281 0.25 -0.882812 0.28125 -0.90625 C 0.320312 -0.9375 0.351562 -0.960938 0.375 -0.984375 C 0.382812 -0.984375 0.390625 -0.984375 0.390625 -0.984375 C 0.515625 -1.085938 0.632812 -1.195312 0.75 -1.3125 C 0.800781 -1.363281 0.863281 -1.394531 0.9375 -1.40625 C 1.050781 -1.40625 1.097656 -1.351562 1.078125 -1.25 C 1.066406 -1.207031 1.054688 -1.171875 1.046875 -1.140625 C 1.003906 -0.972656 1.003906 -0.875 1.046875 -0.84375 C 1.085938 -0.820312 1.148438 -0.820312 1.234375 -0.84375 C 1.316406 -0.875 1.398438 -0.929688 1.484375 -1.015625 C 1.566406 -1.097656 1.632812 -1.171875 1.6875 -1.234375 C 1.75 -1.296875 1.800781 -1.316406 1.84375 -1.296875 Z M 1.84375 -1.296875 "/></g></g><g transform="translate(50.563014, 18.928224)"><g><path d="M 2.015625 -1.265625 C 2.035156 -1.234375 2 -1.171875 1.90625 -1.078125 C 1.8125 -0.992188 1.710938 -0.921875 1.609375 -0.859375 C 1.503906 -0.796875 1.378906 -0.734375 1.234375 -0.671875 C 1.140625 -0.628906 1.039062 -0.613281 0.9375 -0.625 C 0.832031 -0.644531 0.78125 -0.710938 0.78125 -0.828125 C 0.78125 -0.941406 0.804688 -1.050781 0.859375 -1.15625 C 0.910156 -1.269531 0.921875 -1.328125 0.890625 -1.328125 C 0.859375 -1.335938 0.800781 -1.3125 0.71875 -1.25 C 0.46875 -1.09375 0.238281 -0.910156 0.03125 -0.703125 C -0.0195312 -0.640625 -0.0859375 -0.601562 -0.171875 -0.59375 C -0.222656 -0.59375 -0.257812 -0.609375 -0.28125 -0.640625 C -0.300781 -0.671875 -0.304688 -0.703125 -0.296875 -0.734375 C -0.140625 -1.003906 0.0078125 -1.273438 0.15625 -1.546875 C 0.195312 -1.597656 0.25 -1.632812 0.3125 -1.65625 C 0.34375 -1.65625 0.367188 -1.644531 0.390625 -1.625 C 0.421875 -1.601562 0.4375 -1.578125 0.4375 -1.546875 C 0.425781 -1.515625 0.414062 -1.484375 0.40625 -1.453125 C 0.394531 -1.429688 0.382812 -1.410156 0.375 -1.390625 C 0.363281 -1.367188 0.359375 -1.347656 0.359375 -1.328125 C 0.367188 -1.316406 0.382812 -1.316406 0.40625 -1.328125 C 0.425781 -1.335938 0.445312 -1.347656 0.46875 -1.359375 C 0.539062 -1.398438 0.601562 -1.4375 0.65625 -1.46875 C 0.707031 -1.5 0.757812 -1.523438 0.8125 -1.546875 C 0.875 -1.578125 0.9375 -1.597656 1 -1.609375 C 1.101562 -1.609375 1.175781 -1.582031 1.21875 -1.53125 C 1.257812 -1.476562 1.265625 -1.40625 1.234375 -1.3125 C 1.203125 -1.226562 1.164062 -1.144531 1.125 -1.0625 C 1.082031 -0.988281 1.078125 -0.929688 1.109375 -0.890625 C 1.140625 -0.847656 1.28125 -0.894531 1.53125 -1.03125 L 1.71875 -1.140625 C 1.894531 -1.253906 1.992188 -1.296875 2.015625 -1.265625 Z M 2.015625 -1.265625 "/></g></g><g transform="translate(52.426862, 18.928224)"><g><path d="M 1.828125 -1.328125 C 1.835938 -1.328125 1.847656 -1.320312 1.859375 -1.3125 C 1.867188 -1.3125 1.878906 -1.304688 1.890625 -1.296875 C 1.910156 -1.273438 1.910156 -1.25 1.890625 -1.21875 C 1.867188 -1.195312 1.847656 -1.175781 1.828125 -1.15625 C 1.691406 -1.03125 1.546875 -0.929688 1.390625 -0.859375 C 1.140625 -0.722656 0.863281 -0.65625 0.5625 -0.65625 C 0.445312 -0.65625 0.332031 -0.675781 0.21875 -0.71875 C 0 -0.800781 -0.0859375 -0.957031 -0.046875 -1.1875 C 0.00390625 -1.394531 0.125 -1.566406 0.3125 -1.703125 C 0.5 -1.847656 0.703125 -1.910156 0.921875 -1.890625 C 0.960938 -1.878906 1.003906 -1.867188 1.046875 -1.859375 C 1.078125 -1.847656 1.101562 -1.828125 1.125 -1.796875 C 1.144531 -1.765625 1.148438 -1.738281 1.140625 -1.71875 C 1.097656 -1.675781 1.050781 -1.664062 1 -1.6875 C 0.914062 -1.726562 0.84375 -1.738281 0.78125 -1.71875 C 0.71875 -1.707031 0.648438 -1.671875 0.578125 -1.609375 C 0.515625 -1.566406 0.445312 -1.5 0.375 -1.40625 C 0.300781 -1.3125 0.253906 -1.210938 0.234375 -1.109375 C 0.210938 -1.015625 0.253906 -0.941406 0.359375 -0.890625 C 0.472656 -0.835938 0.59375 -0.820312 0.71875 -0.84375 C 1.03125 -0.90625 1.316406 -1.023438 1.578125 -1.203125 C 1.597656 -1.210938 1.617188 -1.222656 1.640625 -1.234375 C 1.671875 -1.253906 1.703125 -1.269531 1.734375 -1.28125 C 1.765625 -1.300781 1.796875 -1.316406 1.828125 -1.328125 Z M 1.828125 -1.328125 "/></g></g><g transform="translate(54.122888, 18.928224)"><g><path d="M 1.59375 -1.234375 C 1.363281 -0.960938 1.140625 -0.757812 0.921875 -0.625 C 0.703125 -0.5 0.46875 -0.457031 0.21875 -0.5 C -0.03125 -0.550781 -0.128906 -0.722656 -0.078125 -1.015625 C -0.046875 -1.160156 -0.00390625 -1.300781 0.046875 -1.4375 C 0.171875 -1.757812 0.300781 -2.082031 0.4375 -2.40625 C 0.476562 -2.519531 0.523438 -2.632812 0.578125 -2.75 C 0.585938 -2.769531 0.597656 -2.796875 0.609375 -2.828125 C 0.628906 -2.867188 0.648438 -2.910156 0.671875 -2.953125 C 0.691406 -3.023438 0.660156 -3.066406 0.578125 -3.078125 C 0.523438 -3.078125 0.476562 -3.078125 0.4375 -3.078125 C 0.414062 -3.078125 0.390625 -3.078125 0.359375 -3.078125 C 0.328125 -3.066406 0.300781 -3.0625 0.28125 -3.0625 C 0.238281 -3.0625 0.191406 -3.0625 0.140625 -3.0625 C 0.0976562 -3.0625 0.0625 -3.070312 0.03125 -3.09375 C 0.0195312 -3.09375 0.0078125 -3.097656 0 -3.109375 C 0 -3.117188 0 -3.128906 0 -3.140625 C 0 -3.148438 0 -3.15625 0 -3.15625 C 0.0078125 -3.164062 0.0234375 -3.175781 0.046875 -3.1875 C 0.078125 -3.195312 0.113281 -3.207031 0.15625 -3.21875 C 0.257812 -3.21875 0.363281 -3.222656 0.46875 -3.234375 C 0.507812 -3.234375 0.546875 -3.234375 0.578125 -3.234375 C 0.640625 -3.234375 0.6875 -3.234375 0.71875 -3.234375 C 0.757812 -3.242188 0.789062 -3.257812 0.8125 -3.28125 C 0.832031 -3.3125 0.851562 -3.363281 0.875 -3.4375 C 0.894531 -3.46875 0.914062 -3.503906 0.9375 -3.546875 C 0.988281 -3.660156 1.046875 -3.78125 1.109375 -3.90625 C 1.128906 -3.957031 1.15625 -4.007812 1.1875 -4.0625 C 1.207031 -4.113281 1.238281 -4.15625 1.28125 -4.1875 C 1.332031 -4.207031 1.375 -4.207031 1.40625 -4.1875 C 1.414062 -4.175781 1.421875 -4.160156 1.421875 -4.140625 C 1.429688 -4.128906 1.4375 -4.117188 1.4375 -4.109375 C 1.4375 -4.046875 1.421875 -3.984375 1.390625 -3.921875 C 1.378906 -3.898438 1.367188 -3.878906 1.359375 -3.859375 C 1.335938 -3.804688 1.316406 -3.75 1.296875 -3.6875 C 1.242188 -3.570312 1.195312 -3.453125 1.15625 -3.328125 C 1.144531 -3.304688 1.144531 -3.285156 1.15625 -3.265625 C 1.164062 -3.253906 1.179688 -3.25 1.203125 -3.25 C 1.316406 -3.238281 1.4375 -3.234375 1.5625 -3.234375 C 1.613281 -3.234375 1.671875 -3.234375 1.734375 -3.234375 C 1.921875 -3.234375 1.992188 -3.207031 1.953125 -3.15625 C 1.929688 -3.132812 1.90625 -3.117188 1.875 -3.109375 C 1.84375 -3.109375 1.8125 -3.109375 1.78125 -3.109375 C 1.757812 -3.109375 1.742188 -3.109375 1.734375 -3.109375 C 1.535156 -3.097656 1.34375 -3.09375 1.15625 -3.09375 C 1.070312 -3.09375 1.015625 -3.050781 0.984375 -2.96875 C 0.953125 -2.894531 0.925781 -2.820312 0.90625 -2.75 C 0.863281 -2.65625 0.820312 -2.5625 0.78125 -2.46875 C 0.75 -2.375 0.710938 -2.28125 0.671875 -2.1875 C 0.578125 -1.96875 0.484375 -1.742188 0.390625 -1.515625 C 0.335938 -1.359375 0.296875 -1.203125 0.265625 -1.046875 C 0.191406 -0.765625 0.300781 -0.660156 0.59375 -0.734375 C 0.875 -0.796875 1.171875 -1 1.484375 -1.34375 C 1.617188 -1.425781 1.65625 -1.390625 1.59375 -1.234375 Z M 1.59375 -1.234375 "/></g></g><g transform="translate(55.56718, 18.928224)"><g><path d="M 0.0625 -0.453125 C -0.09375 -0.453125 -0.171875 -0.535156 -0.171875 -0.703125 C -0.171875 -0.910156 -0.0390625 -1.269531 0.21875 -1.78125 C 0.226562 -1.800781 0.25 -1.8125 0.28125 -1.8125 C 0.382812 -1.8125 0.4375 -1.769531 0.4375 -1.6875 C 0.4375 -1.65625 0.425781 -1.617188 0.40625 -1.578125 C 0.40625 -1.566406 0.316406 -1.34375 0.140625 -0.90625 C 0.117188 -0.832031 0.109375 -0.78125 0.109375 -0.75 C 0.109375 -0.71875 0.125 -0.703125 0.15625 -0.703125 C 0.28125 -0.703125 0.601562 -1.007812 1.125 -1.625 C 1.195312 -1.707031 1.265625 -1.75 1.328125 -1.75 C 1.421875 -1.75 1.46875 -1.710938 1.46875 -1.640625 C 1.46875 -1.609375 1.4375 -1.503906 1.375 -1.328125 C 1.300781 -1.085938 1.265625 -0.945312 1.265625 -0.90625 C 1.265625 -0.851562 1.28125 -0.828125 1.3125 -0.828125 C 1.40625 -0.828125 1.675781 -0.992188 2.125 -1.328125 C 2.15625 -1.347656 2.179688 -1.359375 2.203125 -1.359375 C 2.242188 -1.359375 2.265625 -1.320312 2.265625 -1.25 C 2.265625 -1.226562 2.257812 -1.210938 2.25 -1.203125 C 2.007812 -0.992188 1.804688 -0.835938 1.640625 -0.734375 C 1.484375 -0.640625 1.347656 -0.59375 1.234375 -0.59375 L 1.1875 -0.59375 C 1.019531 -0.625 0.9375 -0.757812 0.9375 -1 C 0.75 -0.832031 0.59375 -0.695312 0.46875 -0.59375 C 0.34375 -0.5 0.207031 -0.453125 0.0625 -0.453125 Z M 0.0625 -0.453125 "/></g></g><g transform="translate(57.657334, 18.928224)"><g><path d="M 1.84375 -1.296875 C 1.882812 -1.273438 1.890625 -1.21875 1.859375 -1.125 C 1.804688 -1.0625 1.75 -1 1.6875 -0.9375 C 1.632812 -0.882812 1.578125 -0.835938 1.515625 -0.796875 C 1.503906 -0.796875 1.5 -0.796875 1.5 -0.796875 C 1.457031 -0.765625 1.410156 -0.738281 1.359375 -0.71875 C 0.953125 -0.570312 0.75 -0.65625 0.75 -0.96875 C 0.582031 -0.820312 0.472656 -0.734375 0.421875 -0.703125 C 0.285156 -0.628906 0.140625 -0.597656 -0.015625 -0.609375 C -0.128906 -0.609375 -0.207031 -0.640625 -0.25 -0.703125 C -0.289062 -0.765625 -0.289062 -0.851562 -0.25 -0.96875 C -0.164062 -1.132812 -0.0546875 -1.285156 0.078125 -1.421875 C 0.234375 -1.566406 0.410156 -1.6875 0.609375 -1.78125 C 0.710938 -1.832031 0.820312 -1.851562 0.9375 -1.84375 C 1.050781 -1.832031 1.117188 -1.765625 1.140625 -1.640625 C 1.148438 -1.609375 1.144531 -1.578125 1.125 -1.546875 C 1.082031 -1.515625 1.035156 -1.507812 0.984375 -1.53125 C 0.984375 -1.53125 0.976562 -1.53125 0.96875 -1.53125 C 0.914062 -1.601562 0.863281 -1.632812 0.8125 -1.625 C 0.757812 -1.613281 0.707031 -1.585938 0.65625 -1.546875 C 0.394531 -1.398438 0.203125 -1.191406 0.078125 -0.921875 C 0.0664062 -0.898438 0.0625 -0.882812 0.0625 -0.875 C 0.0625 -0.863281 0.0664062 -0.851562 0.078125 -0.84375 C 0.109375 -0.832031 0.140625 -0.832031 0.171875 -0.84375 C 0.210938 -0.863281 0.25 -0.882812 0.28125 -0.90625 C 0.320312 -0.9375 0.351562 -0.960938 0.375 -0.984375 C 0.382812 -0.984375 0.390625 -0.984375 0.390625 -0.984375 C 0.515625 -1.085938 0.632812 -1.195312 0.75 -1.3125 C 0.800781 -1.363281 0.863281 -1.394531 0.9375 -1.40625 C 1.050781 -1.40625 1.097656 -1.351562 1.078125 -1.25 C 1.066406 -1.207031 1.054688 -1.171875 1.046875 -1.140625 C 1.003906 -0.972656 1.003906 -0.875 1.046875 -0.84375 C 1.085938 -0.820312 1.148438 -0.820312 1.234375 -0.84375 C 1.316406 -0.875 1.398438 -0.929688 1.484375 -1.015625 C 1.566406 -1.097656 1.632812 -1.171875 1.6875 -1.234375 C 1.75 -1.296875 1.800781 -1.316406 1.84375 -1.296875 Z M 1.84375 -1.296875 "/></g></g><g transform="translate(59.343189, 18.928224)"><g><path d="M 1.21875 -1.5625 C 1.207031 -1.445312 1.148438 -1.367188 1.046875 -1.328125 C 0.953125 -1.296875 0.921875 -1.34375 0.953125 -1.46875 C 0.992188 -1.601562 0.9375 -1.632812 0.78125 -1.5625 C 0.632812 -1.5 0.515625 -1.421875 0.421875 -1.328125 C 0.273438 -1.171875 0.140625 -1.003906 0.015625 -0.828125 C 0.00390625 -0.816406 0 -0.804688 0 -0.796875 C -0.0390625 -0.742188 -0.078125 -0.695312 -0.109375 -0.65625 C -0.128906 -0.625 -0.15625 -0.601562 -0.1875 -0.59375 C -0.21875 -0.59375 -0.25 -0.59375 -0.28125 -0.59375 C -0.300781 -0.601562 -0.316406 -0.613281 -0.328125 -0.625 C -0.347656 -0.644531 -0.351562 -0.671875 -0.34375 -0.703125 C -0.320312 -0.742188 -0.300781 -0.785156 -0.28125 -0.828125 C -0.125 -1.117188 0.03125 -1.40625 0.1875 -1.6875 C 0.1875 -1.6875 0.1875 -1.691406 0.1875 -1.703125 C 0.207031 -1.742188 0.234375 -1.78125 0.265625 -1.8125 C 0.296875 -1.851562 0.332031 -1.867188 0.375 -1.859375 C 0.425781 -1.859375 0.457031 -1.832031 0.46875 -1.78125 C 0.488281 -1.726562 0.503906 -1.695312 0.515625 -1.6875 C 0.535156 -1.675781 0.566406 -1.679688 0.609375 -1.703125 C 0.710938 -1.742188 0.8125 -1.769531 0.90625 -1.78125 C 1.007812 -1.789062 1.09375 -1.785156 1.15625 -1.765625 C 1.21875 -1.742188 1.238281 -1.675781 1.21875 -1.5625 Z M 1.21875 -1.5625 "/></g></g><g transform="translate(60.614573, 18.928224)"><g><path d="M 2 -1.328125 C 2.019531 -1.285156 1.984375 -1.21875 1.890625 -1.125 C 1.796875 -1.039062 1.628906 -0.929688 1.390625 -0.796875 C 1.296875 -0.765625 1.226562 -0.738281 1.1875 -0.71875 C 1.144531 -0.695312 1.113281 -0.664062 1.09375 -0.625 C 1.082031 -0.59375 1.066406 -0.539062 1.046875 -0.46875 C 1.023438 -0.414062 1 -0.347656 0.96875 -0.265625 C 0.925781 -0.148438 0.882812 -0.0351562 0.84375 0.078125 C 0.769531 0.304688 0.679688 0.535156 0.578125 0.765625 C 0.472656 0.992188 0.335938 1.191406 0.171875 1.359375 C 0.015625 1.535156 -0.191406 1.65625 -0.453125 1.71875 C -0.703125 1.757812 -0.945312 1.765625 -1.1875 1.734375 C -1.4375 1.703125 -1.675781 1.632812 -1.90625 1.53125 C -2 1.488281 -2.082031 1.429688 -2.15625 1.359375 C -2.28125 1.234375 -2.289062 1.09375 -2.1875 0.9375 C -2.125 0.863281 -2.054688 0.796875 -1.984375 0.734375 C -1.835938 0.609375 -1.679688 0.5 -1.515625 0.40625 C -1.210938 0.21875 -0.898438 0.0507812 -0.578125 -0.09375 C -0.265625 -0.25 0.0507812 -0.398438 0.375 -0.546875 C 0.394531 -0.554688 0.421875 -0.566406 0.453125 -0.578125 C 0.535156 -0.617188 0.625 -0.660156 0.71875 -0.703125 C 0.78125 -0.722656 0.820312 -0.765625 0.84375 -0.828125 C 0.851562 -0.847656 0.859375 -0.867188 0.859375 -0.890625 C 0.847656 -0.898438 0.835938 -0.90625 0.828125 -0.90625 C 0.828125 -0.914062 0.816406 -0.914062 0.796875 -0.90625 C 0.765625 -0.882812 0.734375 -0.863281 0.703125 -0.84375 C 0.679688 -0.832031 0.660156 -0.816406 0.640625 -0.796875 C 0.523438 -0.734375 0.40625 -0.707031 0.28125 -0.71875 C 0.0820312 -0.71875 -0.015625 -0.804688 -0.015625 -0.984375 C -0.0234375 -1.128906 -0.00390625 -1.265625 0.046875 -1.390625 C 0.0976562 -1.523438 0.175781 -1.648438 0.28125 -1.765625 C 0.289062 -1.773438 0.300781 -1.78125 0.3125 -1.78125 C 0.332031 -1.789062 0.351562 -1.800781 0.375 -1.8125 C 0.382812 -1.8125 0.390625 -1.8125 0.390625 -1.8125 C 0.429688 -1.8125 0.460938 -1.800781 0.484375 -1.78125 C 0.503906 -1.757812 0.503906 -1.734375 0.484375 -1.703125 C 0.460938 -1.648438 0.441406 -1.601562 0.421875 -1.5625 C 0.398438 -1.519531 0.382812 -1.484375 0.375 -1.453125 C 0.289062 -1.304688 0.253906 -1.148438 0.265625 -0.984375 C 0.265625 -0.953125 0.273438 -0.925781 0.296875 -0.90625 C 0.328125 -0.894531 0.363281 -0.898438 0.40625 -0.921875 C 0.5 -0.953125 0.582031 -1.007812 0.65625 -1.09375 C 0.863281 -1.269531 1.03125 -1.476562 1.15625 -1.71875 C 1.175781 -1.75 1.195312 -1.773438 1.21875 -1.796875 C 1.25 -1.828125 1.285156 -1.84375 1.328125 -1.84375 C 1.378906 -1.851562 1.414062 -1.84375 1.4375 -1.8125 C 1.46875 -1.78125 1.476562 -1.742188 1.46875 -1.703125 C 1.414062 -1.546875 1.363281 -1.394531 1.3125 -1.25 C 1.3125 -1.238281 1.3125 -1.226562 1.3125 -1.21875 C 1.289062 -1.1875 1.273438 -1.148438 1.265625 -1.109375 C 1.253906 -1.066406 1.25 -1.03125 1.25 -1 C 1.25 -0.976562 1.257812 -0.96875 1.28125 -0.96875 C 1.375 -0.988281 1.507812 -1.0625 1.6875 -1.1875 C 1.875 -1.320312 1.976562 -1.367188 2 -1.328125 Z M 0.65625 -0.3125 C 0.65625 -0.3125 0.660156 -0.316406 0.671875 -0.328125 C 0.679688 -0.347656 0.6875 -0.367188 0.6875 -0.390625 C 0.6875 -0.410156 0.679688 -0.429688 0.671875 -0.453125 C 0.660156 -0.453125 0.648438 -0.453125 0.640625 -0.453125 C 0.617188 -0.453125 0.597656 -0.445312 0.578125 -0.4375 C 0.535156 -0.425781 0.5 -0.410156 0.46875 -0.390625 C 0.164062 -0.253906 -0.128906 -0.113281 -0.421875 0.03125 C -0.722656 0.175781 -1.015625 0.332031 -1.296875 0.5 C -1.472656 0.601562 -1.640625 0.71875 -1.796875 0.84375 C -1.921875 0.957031 -1.976562 1.054688 -1.96875 1.140625 C -1.96875 1.222656 -1.894531 1.300781 -1.75 1.375 C -1.425781 1.539062 -1.082031 1.609375 -0.71875 1.578125 C -0.457031 1.554688 -0.25 1.460938 -0.09375 1.296875 C 0.0625 1.128906 0.191406 0.925781 0.296875 0.6875 C 0.398438 0.457031 0.488281 0.226562 0.5625 0 C 0.59375 -0.101562 0.625 -0.207031 0.65625 -0.3125 Z M 0.65625 -0.3125 "/></g></g></g><g fill="#378d11" fill-opacity="1"><g transform="translate(37.407156, 23.315697)"><g><path d="M 1.125 -0.359375 L 0.421875 -0.359375 L 0.296875 0 L 0.078125 0 L 0.65625 -1.609375 L 0.90625 -1.609375 L 1.484375 0 L 1.265625 0 Z M 1.078125 -0.53125 L 0.78125 -1.34375 L 0.484375 -0.53125 Z M 1.078125 -0.53125 "/></g></g></g><g fill="#378d11" fill-opacity="1"><g transform="translate(39.601661, 23.315697)"><g><path d="M 1.4375 0 L 1.234375 0 L 0.390625 -1.28125 L 0.390625 0 L 0.171875 0 L 0.171875 -1.609375 L 0.390625 -1.609375 L 1.234375 -0.328125 L 1.234375 -1.609375 L 1.4375 -1.609375 Z M 1.4375 0 "/></g></g></g><g fill="#378d11" fill-opacity="1"><g transform="translate(41.863227, 23.315697)"><g/></g></g><g fill="#378d11" fill-opacity="1"><g transform="translate(43.116567, 23.315697)"><g><path d="M 0.90625 0.015625 C 0.757812 0.015625 0.625 -0.015625 0.5 -0.078125 C 0.375 -0.148438 0.273438 -0.25 0.203125 -0.375 C 0.128906 -0.507812 0.09375 -0.65625 0.09375 -0.8125 C 0.09375 -0.96875 0.128906 -1.109375 0.203125 -1.234375 C 0.273438 -1.359375 0.375 -1.453125 0.5 -1.515625 C 0.625 -1.585938 0.757812 -1.625 0.90625 -1.625 C 1.0625 -1.625 1.195312 -1.585938 1.3125 -1.515625 C 1.4375 -1.453125 1.535156 -1.359375 1.609375 -1.234375 C 1.679688 -1.109375 1.71875 -0.96875 1.71875 -0.8125 C 1.71875 -0.644531 1.679688 -0.5 1.609375 -0.375 C 1.535156 -0.25 1.4375 -0.148438 1.3125 -0.078125 C 1.195312 -0.015625 1.0625 0.015625 0.90625 0.015625 Z M 0.90625 -0.171875 C 1.019531 -0.171875 1.117188 -0.195312 1.203125 -0.25 C 1.296875 -0.300781 1.367188 -0.375 1.421875 -0.46875 C 1.472656 -0.5625 1.5 -0.675781 1.5 -0.8125 C 1.5 -0.9375 1.472656 -1.046875 1.421875 -1.140625 C 1.367188 -1.242188 1.296875 -1.320312 1.203125 -1.375 C 1.117188 -1.425781 1.019531 -1.453125 0.90625 -1.453125 C 0.789062 -1.453125 0.6875 -1.425781 0.59375 -1.375 C 0.507812 -1.320312 0.441406 -1.242188 0.390625 -1.140625 C 0.335938 -1.046875 0.3125 -0.9375 0.3125 -0.8125 C 0.3125 -0.675781 0.335938 -0.5625 0.390625 -0.46875 C 0.441406 -0.375 0.507812 -0.300781 0.59375 -0.25 C 0.6875 -0.195312 0.789062 -0.171875 0.90625 -0.171875 Z M 0.90625 -0.171875 "/></g></g></g><g fill="#378d11" fill-opacity="1"><g transform="translate(45.570065, 23.315697)"><g><path d="M 0.390625 -1.609375 L 0.390625 -0.59375 C 0.390625 -0.445312 0.421875 -0.335938 0.484375 -0.265625 C 0.554688 -0.203125 0.65625 -0.171875 0.78125 -0.171875 C 0.90625 -0.171875 1 -0.203125 1.0625 -0.265625 C 1.132812 -0.335938 1.171875 -0.445312 1.171875 -0.59375 L 1.171875 -1.609375 L 1.390625 -1.609375 L 1.390625 -0.59375 C 1.390625 -0.457031 1.359375 -0.34375 1.296875 -0.25 C 1.242188 -0.164062 1.171875 -0.0976562 1.078125 -0.046875 C 0.992188 -0.00390625 0.894531 0.015625 0.78125 0.015625 C 0.664062 0.015625 0.5625 -0.00390625 0.46875 -0.046875 C 0.375 -0.0976562 0.300781 -0.164062 0.25 -0.25 C 0.195312 -0.34375 0.171875 -0.457031 0.171875 -0.59375 L 0.171875 -1.609375 Z M 0.390625 -1.609375 "/></g></g></g><g fill="#378d11" fill-opacity="1"><g transform="translate(47.76688, 23.315697)"><g><path d="M 1.171875 -1.609375 L 1.171875 -1.4375 L 0.734375 -1.4375 L 0.734375 0 L 0.515625 0 L 0.515625 -1.4375 L 0.078125 -1.4375 L 0.078125 -1.609375 Z M 1.171875 -1.609375 "/></g></g></g><g fill="#378d11" fill-opacity="1"><g transform="translate(49.65383, 23.315697)"><g><path d="M 0.6875 -1.609375 C 0.851562 -1.609375 1 -1.578125 1.125 -1.515625 C 1.257812 -1.453125 1.359375 -1.359375 1.421875 -1.234375 C 1.492188 -1.109375 1.53125 -0.960938 1.53125 -0.796875 C 1.53125 -0.640625 1.492188 -0.5 1.421875 -0.375 C 1.359375 -0.25 1.257812 -0.15625 1.125 -0.09375 C 1 -0.03125 0.851562 0 0.6875 0 L 0.171875 0 L 0.171875 -1.609375 Z M 0.6875 -0.171875 C 0.882812 -0.171875 1.039062 -0.222656 1.15625 -0.328125 C 1.269531 -0.441406 1.328125 -0.597656 1.328125 -0.796875 C 1.328125 -1.003906 1.269531 -1.160156 1.15625 -1.265625 C 1.039062 -1.378906 0.882812 -1.4375 0.6875 -1.4375 L 0.390625 -1.4375 L 0.390625 -0.171875 Z M 0.6875 -0.171875 "/></g></g></g><g fill="#378d11" fill-opacity="1"><g transform="translate(51.924643, 23.315697)"><g><path d="M 0.90625 0.015625 C 0.757812 0.015625 0.625 -0.015625 0.5 -0.078125 C 0.375 -0.148438 0.273438 -0.25 0.203125 -0.375 C 0.128906 -0.507812 0.09375 -0.65625 0.09375 -0.8125 C 0.09375 -0.96875 0.128906 -1.109375 0.203125 -1.234375 C 0.273438 -1.359375 0.375 -1.453125 0.5 -1.515625 C 0.625 -1.585938 0.757812 -1.625 0.90625 -1.625 C 1.0625 -1.625 1.195312 -1.585938 1.3125 -1.515625 C 1.4375 -1.453125 1.535156 -1.359375 1.609375 -1.234375 C 1.679688 -1.109375 1.71875 -0.96875 1.71875 -0.8125 C 1.71875 -0.644531 1.679688 -0.5 1.609375 -0.375 C 1.535156 -0.25 1.4375 -0.148438 1.3125 -0.078125 C 1.195312 -0.015625 1.0625 0.015625 0.90625 0.015625 Z M 0.90625 -0.171875 C 1.019531 -0.171875 1.117188 -0.195312 1.203125 -0.25 C 1.296875 -0.300781 1.367188 -0.375 1.421875 -0.46875 C 1.472656 -0.5625 1.5 -0.675781 1.5 -0.8125 C 1.5 -0.9375 1.472656 -1.046875 1.421875 -1.140625 C 1.367188 -1.242188 1.296875 -1.320312 1.203125 -1.375 C 1.117188 -1.425781 1.019531 -1.453125 0.90625 -1.453125 C 0.789062 -1.453125 0.6875 -1.425781 0.59375 -1.375 C 0.507812 -1.320312 0.441406 -1.242188 0.390625 -1.140625 C 0.335938 -1.046875 0.3125 -0.9375 0.3125 -0.8125 C 0.3125 -0.675781 0.335938 -0.5625 0.390625 -0.46875 C 0.441406 -0.375 0.507812 -0.300781 0.59375 -0.25 C 0.6875 -0.195312 0.789062 -0.171875 0.90625 -0.171875 Z M 0.90625 -0.171875 "/></g></g></g><g fill="#378d11" fill-opacity="1"><g transform="translate(54.378142, 23.315697)"><g><path d="M 0.90625 0.015625 C 0.757812 0.015625 0.625 -0.015625 0.5 -0.078125 C 0.375 -0.148438 0.273438 -0.25 0.203125 -0.375 C 0.128906 -0.507812 0.09375 -0.65625 0.09375 -0.8125 C 0.09375 -0.96875 0.128906 -1.109375 0.203125 -1.234375 C 0.273438 -1.359375 0.375 -1.453125 0.5 -1.515625 C 0.625 -1.585938 0.757812 -1.625 0.90625 -1.625 C 1.0625 -1.625 1.195312 -1.585938 1.3125 -1.515625 C 1.4375 -1.453125 1.535156 -1.359375 1.609375 -1.234375 C 1.679688 -1.109375 1.71875 -0.96875 1.71875 -0.8125 C 1.71875 -0.644531 1.679688 -0.5 1.609375 -0.375 C 1.535156 -0.25 1.4375 -0.148438 1.3125 -0.078125 C 1.195312 -0.015625 1.0625 0.015625 0.90625 0.015625 Z M 0.90625 -0.171875 C 1.019531 -0.171875 1.117188 -0.195312 1.203125 -0.25 C 1.296875 -0.300781 1.367188 -0.375 1.421875 -0.46875 C 1.472656 -0.5625 1.5 -0.675781 1.5 -0.8125 C 1.5 -0.9375 1.472656 -1.046875 1.421875 -1.140625 C 1.367188 -1.242188 1.296875 -1.320312 1.203125 -1.375 C 1.117188 -1.425781 1.019531 -1.453125 0.90625 -1.453125 C 0.789062 -1.453125 0.6875 -1.425781 0.59375 -1.375 C 0.507812 -1.320312 0.441406 -1.242188 0.390625 -1.140625 C 0.335938 -1.046875 0.3125 -0.9375 0.3125 -0.8125 C 0.3125 -0.675781 0.335938 -0.5625 0.390625 -0.46875 C 0.441406 -0.375 0.507812 -0.300781 0.59375 -0.25 C 0.6875 -0.195312 0.789062 -0.171875 0.90625 -0.171875 Z M 0.90625 -0.171875 "/></g></g></g><g fill="#378d11" fill-opacity="1"><g transform="translate(56.83164, 23.315697)"><g><path d="M 1.03125 0 L 0.640625 -0.65625 L 0.390625 -0.65625 L 0.390625 0 L 0.171875 0 L 0.171875 -1.609375 L 0.703125 -1.609375 C 0.816406 -1.609375 0.914062 -1.585938 1 -1.546875 C 1.09375 -1.503906 1.160156 -1.445312 1.203125 -1.375 C 1.242188 -1.3125 1.265625 -1.234375 1.265625 -1.140625 C 1.265625 -1.023438 1.226562 -0.925781 1.15625 -0.84375 C 1.09375 -0.757812 1 -0.703125 0.875 -0.671875 L 1.28125 0 Z M 0.390625 -0.828125 L 0.703125 -0.828125 C 0.816406 -0.828125 0.898438 -0.851562 0.953125 -0.90625 C 1.015625 -0.96875 1.046875 -1.046875 1.046875 -1.140625 C 1.046875 -1.234375 1.015625 -1.304688 0.953125 -1.359375 C 0.898438 -1.410156 0.816406 -1.4375 0.703125 -1.4375 L 0.390625 -1.4375 Z M 0.390625 -0.828125 "/></g></g></g><g fill="#378d11" fill-opacity="1"><g transform="translate(58.873523, 23.315697)"><g/></g></g><g fill="#378d11" fill-opacity="1"><g transform="translate(60.126864, 23.315697)"><g><path d="M 0.90625 0.015625 C 0.757812 0.015625 0.625 -0.015625 0.5 -0.078125 C 0.375 -0.148438 0.273438 -0.25 0.203125 -0.375 C 0.128906 -0.507812 0.09375 -0.65625 0.09375 -0.8125 C 0.09375 -0.96875 0.128906 -1.109375 0.203125 -1.234375 C 0.273438 -1.359375 0.375 -1.453125 0.5 -1.515625 C 0.625 -1.585938 0.757812 -1.625 0.90625 -1.625 C 1.0625 -1.625 1.195312 -1.585938 1.3125 -1.515625 C 1.4375 -1.453125 1.535156 -1.359375 1.609375 -1.234375 C 1.679688 -1.109375 1.71875 -0.96875 1.71875 -0.8125 C 1.71875 -0.644531 1.679688 -0.5 1.609375 -0.375 C 1.535156 -0.25 1.4375 -0.148438 1.3125 -0.078125 C 1.195312 -0.015625 1.0625 0.015625 0.90625 0.015625 Z M 0.90625 -0.171875 C 1.019531 -0.171875 1.117188 -0.195312 1.203125 -0.25 C 1.296875 -0.300781 1.367188 -0.375 1.421875 -0.46875 C 1.472656 -0.5625 1.5 -0.675781 1.5 -0.8125 C 1.5 -0.9375 1.472656 -1.046875 1.421875 -1.140625 C 1.367188 -1.242188 1.296875 -1.320312 1.203125 -1.375 C 1.117188 -1.425781 1.019531 -1.453125 0.90625 -1.453125 C 0.789062 -1.453125 0.6875 -1.425781 0.59375 -1.375 C 0.507812 -1.320312 0.441406 -1.242188 0.390625 -1.140625 C 0.335938 -1.046875 0.3125 -0.9375 0.3125 -0.8125 C 0.3125 -0.675781 0.335938 -0.5625 0.390625 -0.46875 C 0.441406 -0.375 0.507812 -0.300781 0.59375 -0.25 C 0.6875 -0.195312 0.789062 -0.171875 0.90625 -0.171875 Z M 0.90625 -0.171875 "/></g></g></g><g fill="#378d11" fill-opacity="1"><g transform="translate(62.580361, 23.315697)"><g><path d="M 1.125 -0.359375 L 0.421875 -0.359375 L 0.296875 0 L 0.078125 0 L 0.65625 -1.609375 L 0.90625 -1.609375 L 1.484375 0 L 1.265625 0 Z M 1.078125 -0.53125 L 0.78125 -1.34375 L 0.484375 -0.53125 Z M 1.078125 -0.53125 "/></g></g></g><g fill="#378d11" fill-opacity="1"><g transform="translate(64.774866, 23.315697)"><g><path d="M 0.6875 0.015625 C 0.582031 0.015625 0.488281 0 0.40625 -0.03125 C 0.320312 -0.0703125 0.253906 -0.125 0.203125 -0.1875 C 0.160156 -0.257812 0.132812 -0.34375 0.125 -0.4375 L 0.359375 -0.4375 C 0.367188 -0.351562 0.398438 -0.285156 0.453125 -0.234375 C 0.503906 -0.179688 0.582031 -0.15625 0.6875 -0.15625 C 0.789062 -0.15625 0.867188 -0.179688 0.921875 -0.234375 C 0.984375 -0.285156 1.015625 -0.351562 1.015625 -0.4375 C 1.015625 -0.488281 0.992188 -0.535156 0.953125 -0.578125 C 0.921875 -0.617188 0.878906 -0.648438 0.828125 -0.671875 C 0.785156 -0.691406 0.71875 -0.710938 0.625 -0.734375 C 0.519531 -0.765625 0.4375 -0.789062 0.375 -0.8125 C 0.3125 -0.84375 0.253906 -0.882812 0.203125 -0.9375 C 0.160156 -1 0.140625 -1.082031 0.140625 -1.1875 C 0.140625 -1.269531 0.160156 -1.34375 0.203125 -1.40625 C 0.253906 -1.476562 0.316406 -1.53125 0.390625 -1.5625 C 0.472656 -1.601562 0.566406 -1.625 0.671875 -1.625 C 0.828125 -1.625 0.953125 -1.585938 1.046875 -1.515625 C 1.140625 -1.441406 1.191406 -1.34375 1.203125 -1.21875 L 0.984375 -1.21875 C 0.972656 -1.28125 0.9375 -1.332031 0.875 -1.375 C 0.820312 -1.425781 0.75 -1.453125 0.65625 -1.453125 C 0.5625 -1.453125 0.488281 -1.425781 0.4375 -1.375 C 0.382812 -1.332031 0.359375 -1.269531 0.359375 -1.1875 C 0.359375 -1.132812 0.375 -1.085938 0.40625 -1.046875 C 0.4375 -1.015625 0.472656 -0.988281 0.515625 -0.96875 C 0.566406 -0.945312 0.640625 -0.925781 0.734375 -0.90625 C 0.835938 -0.875 0.921875 -0.84375 0.984375 -0.8125 C 1.054688 -0.78125 1.113281 -0.734375 1.15625 -0.671875 C 1.195312 -0.617188 1.21875 -0.539062 1.21875 -0.4375 C 1.21875 -0.363281 1.195312 -0.289062 1.15625 -0.21875 C 1.113281 -0.144531 1.050781 -0.0859375 0.96875 -0.046875 C 0.894531 -0.00390625 0.800781 0.015625 0.6875 0.015625 Z M 0.6875 0.015625 "/></g></g></g><g fill="#378d11" fill-opacity="1"><g transform="translate(66.768189, 23.315697)"><g><path d="M 0.390625 -1.609375 L 0.390625 0 L 0.171875 0 L 0.171875 -1.609375 Z M 0.390625 -1.609375 "/></g></g></g><g fill="#378d11" fill-opacity="1"><g transform="translate(67.972969, 23.315697)"><g><path d="M 0.6875 0.015625 C 0.582031 0.015625 0.488281 0 0.40625 -0.03125 C 0.320312 -0.0703125 0.253906 -0.125 0.203125 -0.1875 C 0.160156 -0.257812 0.132812 -0.34375 0.125 -0.4375 L 0.359375 -0.4375 C 0.367188 -0.351562 0.398438 -0.285156 0.453125 -0.234375 C 0.503906 -0.179688 0.582031 -0.15625 0.6875 -0.15625 C 0.789062 -0.15625 0.867188 -0.179688 0.921875 -0.234375 C 0.984375 -0.285156 1.015625 -0.351562 1.015625 -0.4375 C 1.015625 -0.488281 0.992188 -0.535156 0.953125 -0.578125 C 0.921875 -0.617188 0.878906 -0.648438 0.828125 -0.671875 C 0.785156 -0.691406 0.71875 -0.710938 0.625 -0.734375 C 0.519531 -0.765625 0.4375 -0.789062 0.375 -0.8125 C 0.3125 -0.84375 0.253906 -0.882812 0.203125 -0.9375 C 0.160156 -1 0.140625 -1.082031 0.140625 -1.1875 C 0.140625 -1.269531 0.160156 -1.34375 0.203125 -1.40625 C 0.253906 -1.476562 0.316406 -1.53125 0.390625 -1.5625 C 0.472656 -1.601562 0.566406 -1.625 0.671875 -1.625 C 0.828125 -1.625 0.953125 -1.585938 1.046875 -1.515625 C 1.140625 -1.441406 1.191406 -1.34375 1.203125 -1.21875 L 0.984375 -1.21875 C 0.972656 -1.28125 0.9375 -1.332031 0.875 -1.375 C 0.820312 -1.425781 0.75 -1.453125 0.65625 -1.453125 C 0.5625 -1.453125 0.488281 -1.425781 0.4375 -1.375 C 0.382812 -1.332031 0.359375 -1.269531 0.359375 -1.1875 C 0.359375 -1.132812 0.375 -1.085938 0.40625 -1.046875 C 0.4375 -1.015625 0.472656 -0.988281 0.515625 -0.96875 C 0.566406 -0.945312 0.640625 -0.925781 0.734375 -0.90625 C 0.835938 -0.875 0.921875 -0.84375 0.984375 -0.8125 C 1.054688 -0.78125 1.113281 -0.734375 1.15625 -0.671875 C 1.195312 -0.617188 1.21875 -0.539062 1.21875 -0.4375 C 1.21875 -0.363281 1.195312 -0.289062 1.15625 -0.21875 C 1.113281 -0.144531 1.050781 -0.0859375 0.96875 -0.046875 C 0.894531 -0.00390625 0.800781 0.015625 0.6875 0.015625 Z M 0.6875 0.015625 "/></g></g></g></svg>